<mxfile host="drawio-plugin" modified="2021-05-05T06:01:52.646Z" agent="5.0 (Windows NT 6.2; Win64; x64) AppleWebKit/537.36 (KHTML, like Gecko) Chrome/87.0.4280.141 Safari/537.36" etag="Zbcan9-sgegiXQAt8ivZ" version="13.7.9" type="embed"><diagram id="R2lEEEUBdFMjLlhIrx00" name="Page-1"><mxGraphModel dx="836" dy="1531" grid="1" gridSize="10" guides="1" tooltips="1" connect="1" arrows="1" fold="1" page="1" pageScale="1" pageWidth="850" pageHeight="1100" background="#283618" math="0" shadow="0" extFonts="Permanent Marker^https://fonts.googleapis.com/css?family=Permanent+Marker"><root><mxCell id="0"/><mxCell id="1" parent="0"/><mxCell id="WR6oNO81SZ8T_EhysIY7-5" value="folder" style="swimlane;childLayout=stackLayout;horizontal=1;startSize=30;horizontalStack=0;rounded=1;fontSize=14;fontStyle=0;strokeWidth=2;resizeParent=0;resizeLast=1;shadow=0;dashed=0;align=center;fillColor=#BC6C25;strokeColor=#DDA15E;fontColor=#FEFAE0;" parent="1" vertex="1"><mxGeometry x="690" y="190" width="160" height="120" as="geometry"/></mxCell><mxCell id="WR6oNO81SZ8T_EhysIY7-6" value="&lt;u&gt;+folder-id&lt;br&gt;&lt;/u&gt;+folder-name&lt;br&gt;&lt;br&gt;" style="align=left;strokeColor=none;fillColor=none;spacingLeft=4;fontSize=12;verticalAlign=top;resizable=0;rotatable=0;part=1;fontColor=#FEFAE0;html=1;" parent="WR6oNO81SZ8T_EhysIY7-5" vertex="1"><mxGeometry y="30" width="160" height="90" as="geometry"/></mxCell><mxCell id="WR6oNO81SZ8T_EhysIY7-7" value="label" style="swimlane;childLayout=stackLayout;horizontal=1;startSize=30;horizontalStack=0;rounded=1;fontSize=14;fontStyle=0;strokeWidth=2;resizeParent=0;resizeLast=1;shadow=0;dashed=0;align=center;fillColor=#BC6C25;strokeColor=#DDA15E;fontColor=#FEFAE0;" parent="1" vertex="1"><mxGeometry x="690" y="10" width="160" height="120" as="geometry"/></mxCell><mxCell id="WR6oNO81SZ8T_EhysIY7-8" value="&lt;u&gt;+label-id&lt;br&gt;&lt;/u&gt;+label-name&lt;br&gt;" style="align=left;strokeColor=none;fillColor=none;spacingLeft=4;fontSize=12;verticalAlign=top;resizable=0;rotatable=0;part=1;fontColor=#FEFAE0;html=1;" parent="WR6oNO81SZ8T_EhysIY7-7" vertex="1"><mxGeometry y="30" width="160" height="90" as="geometry"/></mxCell><mxCell id="WR6oNO81SZ8T_EhysIY7-9" value="                             conversation     " style="swimlane;childLayout=stackLayout;horizontal=1;startSize=30;horizontalStack=0;rounded=1;fontSize=14;fontStyle=0;strokeWidth=2;resizeParent=0;resizeLast=1;shadow=0;dashed=0;align=center;labelBorderColor=none;fillColor=#BC6C25;strokeColor=#DDA15E;fontColor=#FEFAE0;" parent="1" vertex="1"><mxGeometry x="390" y="490" width="160" height="120" as="geometry"/></mxCell><mxCell id="WR6oNO81SZ8T_EhysIY7-10" value="&lt;u&gt;+conversation-id&lt;br&gt;&lt;/u&gt;+conversation-content&lt;br&gt;+conversation-date" style="align=left;strokeColor=none;fillColor=none;spacingLeft=4;fontSize=12;verticalAlign=top;resizable=0;rotatable=0;part=1;html=1;fontColor=#FEFAE0;" parent="WR6oNO81SZ8T_EhysIY7-9" vertex="1"><mxGeometry y="30" width="160" height="90" as="geometry"/></mxCell><mxCell id="WR6oNO81SZ8T_EhysIY7-11" value="             replay              " style="swimlane;childLayout=stackLayout;horizontal=1;startSize=30;horizontalStack=0;rounded=1;fontSize=14;fontStyle=0;strokeWidth=2;resizeParent=0;resizeLast=1;shadow=0;dashed=0;align=center;labelBorderColor=#000000;fillColor=#BC6C25;strokeColor=#DDA15E;fontColor=#FEFAE0;" parent="1" vertex="1"><mxGeometry x="20" y="10" width="160" height="120" as="geometry"/></mxCell><mxCell id="WR6oNO81SZ8T_EhysIY7-12" value="+replay_id&#10;+replay-content&#10;" style="align=left;strokeColor=none;fillColor=none;spacingLeft=4;fontSize=12;verticalAlign=top;resizable=0;rotatable=0;part=1;fontColor=#FEFAE0;" parent="WR6oNO81SZ8T_EhysIY7-11" vertex="1"><mxGeometry y="30" width="160" height="90" as="geometry"/></mxCell><mxCell id="WR6oNO81SZ8T_EhysIY7-19" style="edgeStyle=orthogonalEdgeStyle;rounded=0;orthogonalLoop=1;jettySize=auto;html=1;endArrow=none;endFill=0;entryX=1;entryY=0.25;entryDx=0;entryDy=0;strokeColor=#DDA15E;fontColor=#FEFAE0;labelBackgroundColor=#283618;" parent="1" source="WR6oNO81SZ8T_EhysIY7-16" target="WR6oNO81SZ8T_EhysIY7-2" edge="1"><mxGeometry relative="1" as="geometry"><mxPoint x="350" y="190" as="targetPoint"/></mxGeometry></mxCell><mxCell id="WR6oNO81SZ8T_EhysIY7-21" style="edgeStyle=orthogonalEdgeStyle;rounded=0;orthogonalLoop=1;jettySize=auto;html=1;entryX=-0.019;entryY=0.111;entryDx=0;entryDy=0;entryPerimeter=0;endArrow=none;endFill=0;strokeColor=#DDA15E;fontColor=#FEFAE0;labelBackgroundColor=#283618;" parent="1" source="WR6oNO81SZ8T_EhysIY7-16" target="WR6oNO81SZ8T_EhysIY7-8" edge="1"><mxGeometry relative="1" as="geometry"/></mxCell><mxCell id="WR6oNO81SZ8T_EhysIY7-16" value="labeled by" style="shape=rhombus;perimeter=rhombusPerimeter;whiteSpace=wrap;html=1;align=center;fillColor=#BC6C25;strokeColor=#DDA15E;fontColor=#FEFAE0;" parent="1" vertex="1"><mxGeometry x="530" y="20" width="120" height="60" as="geometry"/></mxCell><mxCell id="WR6oNO81SZ8T_EhysIY7-20" style="edgeStyle=orthogonalEdgeStyle;rounded=0;orthogonalLoop=1;jettySize=auto;html=1;entryX=1;entryY=0.5;entryDx=0;entryDy=0;endArrow=none;endFill=0;strokeColor=#DDA15E;fontColor=#FEFAE0;labelBackgroundColor=#283618;" parent="1" source="WR6oNO81SZ8T_EhysIY7-17" target="WR6oNO81SZ8T_EhysIY7-2" edge="1"><mxGeometry relative="1" as="geometry"/></mxCell><mxCell id="WR6oNO81SZ8T_EhysIY7-22" style="edgeStyle=orthogonalEdgeStyle;rounded=0;orthogonalLoop=1;jettySize=auto;html=1;entryX=0;entryY=0.5;entryDx=0;entryDy=0;endArrow=classic;endFill=1;strokeColor=#DDA15E;fontColor=#FEFAE0;labelBackgroundColor=#283618;" parent="1" source="WR6oNO81SZ8T_EhysIY7-17" target="WR6oNO81SZ8T_EhysIY7-5" edge="1"><mxGeometry relative="1" as="geometry"/></mxCell><mxCell id="WR6oNO81SZ8T_EhysIY7-17" value="exists in" style="shape=rhombus;perimeter=rhombusPerimeter;whiteSpace=wrap;html=1;align=center;fillColor=#BC6C25;strokeColor=#DDA15E;fontColor=#FEFAE0;" parent="1" vertex="1"><mxGeometry x="530" y="220" width="120" height="60" as="geometry"/></mxCell><mxCell id="WR6oNO81SZ8T_EhysIY7-1" value="contact" style="swimlane;childLayout=stackLayout;horizontal=1;startSize=30;horizontalStack=0;rounded=1;fontSize=14;fontStyle=0;strokeWidth=2;resizeParent=0;resizeLast=1;shadow=0;dashed=0;align=center;fillColor=#BC6C25;strokeColor=#DDA15E;fontColor=#FEFAE0;" parent="1" vertex="1"><mxGeometry x="300" y="60" width="160" height="120" as="geometry"/></mxCell><mxCell id="WR6oNO81SZ8T_EhysIY7-2" value="+&lt;u&gt;contact_id&lt;/u&gt;&lt;br&gt;+contact_name&lt;br&gt;+contact_email&lt;br&gt;+contact_phone&lt;br&gt;+contact_title" style="align=left;strokeColor=none;fillColor=none;spacingLeft=4;fontSize=12;verticalAlign=top;resizable=0;rotatable=0;part=1;fontColor=#FEFAE0;html=1;" parent="WR6oNO81SZ8T_EhysIY7-1" vertex="1"><mxGeometry y="30" width="160" height="90" as="geometry"/></mxCell><mxCell id="hnBdc3AmPKEWIUO_3Wqu-15" value="              groups          " style="swimlane;childLayout=stackLayout;horizontal=1;startSize=30;horizontalStack=0;rounded=1;fontSize=14;fontStyle=0;strokeWidth=2;resizeParent=0;resizeLast=1;shadow=0;dashed=0;align=center;fillColor=#BC6C25;strokeColor=#DDA15E;fontColor=#FEFAE0;labelBorderColor=#000000;" parent="1" vertex="1"><mxGeometry x="10" y="490" width="160" height="120" as="geometry"/></mxCell><mxCell id="hnBdc3AmPKEWIUO_3Wqu-16" value="+group-id&#10;+group-count" style="align=left;strokeColor=none;fillColor=none;spacingLeft=4;fontSize=12;verticalAlign=top;resizable=0;rotatable=0;part=1;fontColor=#FEFAE0;" parent="hnBdc3AmPKEWIUO_3Wqu-15" vertex="1"><mxGeometry y="30" width="160" height="90" as="geometry"/></mxCell><mxCell id="4EcOPeQw_1EuW9EFgIx9-71" style="edgeStyle=orthogonalEdgeStyle;curved=0;rounded=1;sketch=0;orthogonalLoop=1;jettySize=auto;html=1;entryX=0.5;entryY=1;entryDx=0;entryDy=0;endArrow=none;endFill=0;strokeColor=#DDA15E;fillColor=#BC6C25;fontColor=#FEFAE0;labelBackgroundColor=#283618;" parent="1" source="hnBdc3AmPKEWIUO_3Wqu-27" target="WR6oNO81SZ8T_EhysIY7-12" edge="1"><mxGeometry relative="1" as="geometry"/></mxCell><mxCell id="4EcOPeQw_1EuW9EFgIx9-73" style="edgeStyle=orthogonalEdgeStyle;curved=0;rounded=1;sketch=0;orthogonalLoop=1;jettySize=auto;html=1;entryX=0.5;entryY=0;entryDx=0;entryDy=0;endArrow=block;endFill=0;strokeColor=#DDA15E;fillColor=#BC6C25;fontColor=#FEFAE0;labelBackgroundColor=#283618;" parent="1" source="hnBdc3AmPKEWIUO_3Wqu-27" target="4EcOPeQw_1EuW9EFgIx9-65" edge="1"><mxGeometry relative="1" as="geometry"/></mxCell><mxCell id="hnBdc3AmPKEWIUO_3Wqu-27" value="posts" style="shape=rhombus;double=1;perimeter=rhombusPerimeter;whiteSpace=wrap;html=1;align=center;fillColor=#BC6C25;strokeColor=#DDA15E;fontColor=#FEFAE0;" parent="1" vertex="1"><mxGeometry x="30" y="150" width="120" height="60" as="geometry"/></mxCell><mxCell id="4EcOPeQw_1EuW9EFgIx9-3" value="Email" style="swimlane;childLayout=stackLayout;horizontal=1;startSize=30;horizontalStack=0;rounded=1;fontSize=14;fontStyle=0;strokeWidth=2;resizeParent=0;resizeLast=1;shadow=0;dashed=0;align=center;fillColor=#BC6C25;strokeColor=#DDA15E;fontColor=#FEFAE0;" parent="1" vertex="1"><mxGeometry x="690" y="370" width="160" height="120" as="geometry"/></mxCell><mxCell id="4EcOPeQw_1EuW9EFgIx9-4" value="&lt;u&gt;+email-id&lt;br&gt;&lt;/u&gt;+email-subject&lt;br&gt;+email-date&lt;br&gt;+email-content" style="align=left;strokeColor=none;fillColor=none;spacingLeft=4;fontSize=12;verticalAlign=top;resizable=0;rotatable=0;part=1;fontColor=#FEFAE0;html=1;" parent="4EcOPeQw_1EuW9EFgIx9-3" vertex="1"><mxGeometry y="30" width="160" height="90" as="geometry"/></mxCell><mxCell id="4EcOPeQw_1EuW9EFgIx9-55" style="edgeStyle=orthogonalEdgeStyle;curved=0;rounded=1;sketch=0;orthogonalLoop=1;jettySize=auto;html=1;entryX=0.625;entryY=1;entryDx=0;entryDy=0;entryPerimeter=0;endArrow=classic;endFill=1;strokeColor=#DDA15E;fillColor=#BC6C25;fontColor=#FEFAE0;labelBackgroundColor=#283618;" parent="1" source="4EcOPeQw_1EuW9EFgIx9-5" target="WR6oNO81SZ8T_EhysIY7-2" edge="1"><mxGeometry relative="1" as="geometry"/></mxCell><mxCell id="4EcOPeQw_1EuW9EFgIx9-56" style="edgeStyle=orthogonalEdgeStyle;curved=0;rounded=1;sketch=0;orthogonalLoop=1;jettySize=auto;html=1;entryX=0.5;entryY=0;entryDx=0;entryDy=0;endArrow=none;endFill=0;strokeColor=#DDA15E;fillColor=#BC6C25;fontColor=#FEFAE0;labelBackgroundColor=#283618;" parent="1" source="4EcOPeQw_1EuW9EFgIx9-5" target="4EcOPeQw_1EuW9EFgIx9-3" edge="1"><mxGeometry relative="1" as="geometry"/></mxCell><mxCell id="4EcOPeQw_1EuW9EFgIx9-5" value="send" style="shape=rhombus;perimeter=rhombusPerimeter;whiteSpace=wrap;html=1;align=center;rounded=0;sketch=0;strokeColor=#DDA15E;fillColor=#BC6C25;fontColor=#FEFAE0;" parent="1" vertex="1"><mxGeometry x="530" y="310" width="120" height="60" as="geometry"/></mxCell><mxCell id="4EcOPeQw_1EuW9EFgIx9-67" style="edgeStyle=orthogonalEdgeStyle;curved=0;rounded=1;sketch=0;orthogonalLoop=1;jettySize=auto;html=1;endArrow=block;endFill=0;strokeColor=#DDA15E;fillColor=#BC6C25;fontColor=#FEFAE0;labelBackgroundColor=#283618;" parent="1" source="4EcOPeQw_1EuW9EFgIx9-39" target="hnBdc3AmPKEWIUO_3Wqu-15" edge="1"><mxGeometry relative="1" as="geometry"/></mxCell><mxCell id="4EcOPeQw_1EuW9EFgIx9-68" style="edgeStyle=orthogonalEdgeStyle;curved=0;rounded=1;sketch=0;orthogonalLoop=1;jettySize=auto;html=1;entryX=0.5;entryY=1;entryDx=0;entryDy=0;endArrow=none;endFill=0;strokeColor=#DDA15E;fillColor=#BC6C25;fontColor=#FEFAE0;labelBackgroundColor=#283618;" parent="1" source="4EcOPeQw_1EuW9EFgIx9-39" target="4EcOPeQw_1EuW9EFgIx9-66" edge="1"><mxGeometry relative="1" as="geometry"/></mxCell><mxCell id="4EcOPeQw_1EuW9EFgIx9-39" value="consists of" style="shape=rhombus;double=1;perimeter=rhombusPerimeter;whiteSpace=wrap;html=1;align=center;rounded=0;sketch=0;strokeColor=#DDA15E;fillColor=#BC6C25;fontColor=#FEFAE0;" parent="1" vertex="1"><mxGeometry x="30" y="390" width="120" height="60" as="geometry"/></mxCell><mxCell id="4EcOPeQw_1EuW9EFgIx9-58" style="edgeStyle=orthogonalEdgeStyle;curved=0;rounded=1;sketch=0;orthogonalLoop=1;jettySize=auto;html=1;entryX=1;entryY=0.344;entryDx=0;entryDy=0;entryPerimeter=0;endArrow=none;endFill=0;strokeColor=#DDA15E;fillColor=#BC6C25;fontColor=#FEFAE0;labelBackgroundColor=#283618;" parent="1" source="4EcOPeQw_1EuW9EFgIx9-57" target="WR6oNO81SZ8T_EhysIY7-10" edge="1"><mxGeometry relative="1" as="geometry"/></mxCell><mxCell id="4EcOPeQw_1EuW9EFgIx9-61" style="edgeStyle=orthogonalEdgeStyle;curved=0;rounded=1;sketch=0;orthogonalLoop=1;jettySize=auto;html=1;entryX=0;entryY=0.25;entryDx=0;entryDy=0;endArrow=classic;endFill=1;strokeColor=#DDA15E;fillColor=#BC6C25;fontColor=#FEFAE0;labelBackgroundColor=#283618;" parent="1" source="4EcOPeQw_1EuW9EFgIx9-57" target="4EcOPeQw_1EuW9EFgIx9-4" edge="1"><mxGeometry relative="1" as="geometry"/></mxCell><mxCell id="4EcOPeQw_1EuW9EFgIx9-57" value="initiate" style="shape=rhombus;perimeter=rhombusPerimeter;whiteSpace=wrap;html=1;align=center;rounded=0;sketch=0;strokeColor=#DDA15E;fillColor=#BC6C25;fontColor=#FEFAE0;" parent="1" vertex="1"><mxGeometry x="530" y="400" width="120" height="60" as="geometry"/></mxCell><mxCell id="4EcOPeQw_1EuW9EFgIx9-63" style="edgeStyle=orthogonalEdgeStyle;curved=0;rounded=1;sketch=0;orthogonalLoop=1;jettySize=auto;html=1;entryX=0;entryY=0.25;entryDx=0;entryDy=0;endArrow=block;endFill=0;strokeColor=#DDA15E;fillColor=#BC6C25;fontColor=#FEFAE0;labelBackgroundColor=#283618;" parent="1" source="4EcOPeQw_1EuW9EFgIx9-62" target="WR6oNO81SZ8T_EhysIY7-10" edge="1"><mxGeometry relative="1" as="geometry"/></mxCell><mxCell id="4EcOPeQw_1EuW9EFgIx9-62" value="organised by" style="shape=rhombus;perimeter=rhombusPerimeter;whiteSpace=wrap;html=1;align=center;rounded=0;sketch=0;strokeColor=#DDA15E;fillColor=#BC6C25;fontColor=#FEFAE0;" parent="1" vertex="1"><mxGeometry x="220" y="510" width="120" height="60" as="geometry"/></mxCell><mxCell id="4EcOPeQw_1EuW9EFgIx9-64" style="edgeStyle=orthogonalEdgeStyle;curved=0;rounded=1;sketch=0;orthogonalLoop=1;jettySize=auto;html=1;entryX=0;entryY=0.5;entryDx=0;entryDy=0;endArrow=none;endFill=0;strokeColor=#DDA15E;fillColor=#BC6C25;fontColor=#FEFAE0;labelBackgroundColor=#283618;" parent="1" source="hnBdc3AmPKEWIUO_3Wqu-16" target="4EcOPeQw_1EuW9EFgIx9-62" edge="1"><mxGeometry relative="1" as="geometry"/></mxCell><mxCell id="4EcOPeQw_1EuW9EFgIx9-65" value="&amp;nbsp; &amp;nbsp; &amp;nbsp; &amp;nbsp; &amp;nbsp; member&amp;nbsp; &amp;nbsp; &amp;nbsp; &amp;nbsp; &amp;nbsp;&amp;nbsp;" style="swimlane;childLayout=stackLayout;horizontal=1;startSize=30;horizontalStack=0;rounded=1;fontSize=14;fontStyle=0;strokeWidth=2;resizeParent=0;resizeLast=1;shadow=0;dashed=0;align=center;sketch=0;fillColor=#BC6C25;html=1;strokeColor=#DDA15E;fontColor=#FEFAE0;labelBorderColor=#000000;" parent="1" vertex="1"><mxGeometry x="10" y="240" width="160" height="120" as="geometry"/></mxCell><mxCell id="4EcOPeQw_1EuW9EFgIx9-66" value="+member-id&#10;+user-name&#10;+user-email_address" style="align=left;strokeColor=none;fillColor=none;spacingLeft=4;fontSize=12;verticalAlign=top;resizable=0;rotatable=0;part=1;fontColor=#FEFAE0;" parent="4EcOPeQw_1EuW9EFgIx9-65" vertex="1"><mxGeometry y="30" width="160" height="90" as="geometry"/></mxCell><mxCell id="4EcOPeQw_1EuW9EFgIx9-76" style="edgeStyle=orthogonalEdgeStyle;curved=0;rounded=1;sketch=0;orthogonalLoop=1;jettySize=auto;html=1;entryX=0.463;entryY=0;entryDx=0;entryDy=0;entryPerimeter=0;endArrow=classic;endFill=1;strokeColor=#DDA15E;fillColor=#BC6C25;fontColor=#FEFAE0;labelBackgroundColor=#283618;" parent="1" source="4EcOPeQw_1EuW9EFgIx9-74" target="WR6oNO81SZ8T_EhysIY7-11" edge="1"><mxGeometry relative="1" as="geometry"/></mxCell><mxCell id="4EcOPeQw_1EuW9EFgIx9-74" value="replays" style="shape=rhombus;perimeter=rhombusPerimeter;whiteSpace=wrap;html=1;align=center;rounded=0;sketch=0;strokeColor=#DDA15E;fillColor=#BC6C25;fontColor=#FEFAE0;" parent="1" vertex="1"><mxGeometry x="210" y="-110" width="120" height="60" as="geometry"/></mxCell><mxCell id="4EcOPeQw_1EuW9EFgIx9-75" style="edgeStyle=orthogonalEdgeStyle;curved=0;rounded=1;sketch=0;orthogonalLoop=1;jettySize=auto;html=1;entryX=0.5;entryY=1;entryDx=0;entryDy=0;endArrow=block;endFill=0;strokeColor=#DDA15E;fillColor=#BC6C25;fontColor=#FEFAE0;labelBackgroundColor=#283618;" parent="1" source="WR6oNO81SZ8T_EhysIY7-12" target="4EcOPeQw_1EuW9EFgIx9-74" edge="1"><mxGeometry relative="1" as="geometry"/></mxCell></root></mxGraphModel></diagram></mxfile>